<svg width="193" height="195" viewBox="0 0 193 195" fill="none" xmlns="http://www.w3.org/2000/svg">
<path d="M58.5389 122.128C56.6174 122.128 54.7878 121.776 53.0501 121.072C51.3124 120.351 49.7669 119.244 48.4135 117.752C47.0768 116.243 46.0241 114.323 45.2555 111.992C44.4869 109.645 44.1026 106.828 44.1026 103.542V103.492C44.1026 99.4175 44.6875 95.93 45.8571 93.0294C47.0267 90.112 48.6975 87.8821 50.8697 86.3395C53.0585 84.797 55.6651 84.0258 58.6893 84.0258C60.8949 84.0258 62.8916 84.4365 64.6794 85.2581C66.4672 86.0629 67.9459 87.1779 69.1155 88.603C70.2851 90.0282 71.0621 91.6713 71.4464 93.5324L71.4965 93.8091H65.1556L65.0553 93.5576C64.7379 92.7025 64.2784 91.9647 63.6769 91.3444C63.0921 90.7072 62.3736 90.221 61.5214 89.8857C60.686 89.5336 59.742 89.3575 58.6893 89.3575C56.7678 89.3575 55.1972 89.9276 53.9775 91.0677C52.7744 92.1911 51.8722 93.7001 51.2707 95.5947C50.6859 97.4893 50.3433 99.6019 50.2431 101.932C50.2264 102.167 50.218 102.41 50.218 102.662C50.218 102.897 50.218 103.14 50.218 103.391L51.3459 109.452C51.3459 110.827 51.6633 112.076 52.2983 113.2C52.9332 114.323 53.7937 115.212 54.8797 115.866C55.9658 116.519 57.1688 116.846 58.4888 116.846C59.8255 116.846 61.0369 116.528 62.123 115.891C63.209 115.237 64.0695 114.365 64.7044 113.275C65.3394 112.168 65.6568 110.945 65.6568 109.603V109.553C65.6568 108.144 65.3477 106.904 64.7295 105.831C64.128 104.741 63.2926 103.886 62.2232 103.265C61.1539 102.645 59.9341 102.335 58.564 102.335C57.2106 102.335 55.9825 102.637 54.8797 103.24C53.7937 103.844 52.9332 104.682 52.2983 105.755C51.6633 106.828 51.3459 108.044 51.3459 109.402V109.452H49.8421V102.762H50.7193C51.1704 101.807 51.8137 100.918 52.6491 100.097C53.5013 99.275 54.5539 98.6127 55.8071 98.1097C57.0602 97.6067 58.5055 97.3552 60.143 97.3552C62.4655 97.3552 64.5123 97.875 66.2834 98.9145C68.0712 99.954 69.4664 101.379 70.4689 103.19C71.4715 104.984 71.9727 107.03 71.9727 109.327V109.377C71.9727 111.842 71.3963 114.03 70.2434 115.941C69.0905 117.852 67.5031 119.361 65.4814 120.468C63.4764 121.575 61.1622 122.128 58.5389 122.128Z" fill="#006500"/>
<path d="M92.2236 122.128C89.3497 122.128 86.8852 121.357 84.83 119.814C82.7916 118.272 81.221 116.075 80.1182 113.225C79.0154 110.374 78.464 106.996 78.464 103.089V103.039C78.464 99.1325 79.0154 95.7624 80.1182 92.9288C81.221 90.0785 82.7916 87.8821 84.83 86.3395C86.8852 84.797 89.3497 84.0258 92.2236 84.0258C95.0975 84.0258 97.562 84.797 99.6172 86.3395C101.672 87.8821 103.251 90.0785 104.354 92.9288C105.457 95.7624 106.008 99.1325 106.008 103.039V103.089C106.008 106.996 105.457 110.374 104.354 113.225C103.251 116.075 101.672 118.272 99.6172 119.814C97.562 121.357 95.0975 122.128 92.2236 122.128ZM92.2236 116.871C93.7608 116.871 95.0725 116.318 96.1585 115.212C97.2446 114.105 98.0717 112.529 98.6398 110.483C99.2246 108.421 99.517 105.956 99.517 103.089V103.039C99.517 100.172 99.2246 97.7157 98.6398 95.6702C98.0717 93.6079 97.2446 92.0318 96.1585 90.942C95.0725 89.8354 93.7608 89.2821 92.2236 89.2821C90.6864 89.2821 89.3748 89.8354 88.2887 90.942C87.2194 92.0318 86.3923 93.6079 85.8075 95.6702C85.2394 97.7157 84.9554 100.172 84.9554 103.039V103.089C84.9554 105.956 85.2394 108.421 85.8075 110.483C86.3923 112.529 87.2194 114.105 88.2887 115.212C89.3748 116.318 90.6864 116.871 92.2236 116.871Z" fill="#006500"/>
<path d="M120.72 104.523C119.033 104.523 117.579 104.121 116.359 103.316C115.156 102.494 114.229 101.329 113.577 99.8199C112.926 98.3109 112.6 96.5252 112.6 94.463V94.4378C112.6 92.3755 112.926 90.5983 113.577 89.106C114.229 87.597 115.156 86.4401 116.359 85.6354C117.579 84.8306 119.033 84.4282 120.72 84.4282C122.408 84.4282 123.853 84.8306 125.056 85.6354C126.276 86.4401 127.212 87.597 127.863 89.106C128.515 90.5983 128.841 92.3755 128.841 94.4378V94.463C128.841 96.5252 128.515 98.3109 127.863 99.8199C127.212 101.329 126.276 102.494 125.056 103.316C123.853 104.121 122.408 104.523 120.72 104.523ZM120.72 100.876C121.856 100.876 122.742 100.323 123.377 99.2163C124.012 98.0929 124.329 96.5085 124.329 94.463V94.4378C124.329 92.409 124.012 90.8414 123.377 89.7348C122.742 88.6282 121.856 88.0749 120.72 88.0749C119.567 88.0749 118.673 88.6282 118.039 89.7348C117.42 90.8414 117.111 92.409 117.111 94.4378V94.463C117.111 96.5085 117.42 98.0929 118.039 99.2163C118.673 100.323 119.567 100.876 120.72 100.876ZM125.232 121.222H120.069L144.505 84.9312H149.668L125.232 121.222ZM148.991 121.725C147.32 121.725 145.875 121.323 144.655 120.518C143.436 119.697 142.5 118.54 141.848 117.048C141.197 115.539 140.871 113.753 140.871 111.691V111.665C140.871 109.586 141.197 107.801 141.848 106.309C142.5 104.8 143.436 103.643 144.655 102.838C145.875 102.033 147.32 101.631 148.991 101.631C150.679 101.631 152.133 102.033 153.352 102.838C154.572 103.643 155.508 104.8 156.159 106.309C156.811 107.801 157.137 109.586 157.137 111.665V111.691C157.137 113.753 156.811 115.539 156.159 117.048C155.508 118.54 154.572 119.697 153.352 120.518C152.133 121.323 150.679 121.725 148.991 121.725ZM148.991 118.079C150.144 118.079 151.03 117.525 151.648 116.419C152.283 115.295 152.6 113.719 152.6 111.691V111.665C152.6 109.62 152.283 108.044 151.648 106.937C151.03 105.831 150.144 105.277 148.991 105.277C147.855 105.277 146.97 105.831 146.335 106.937C145.716 108.044 145.407 109.62 145.407 111.665V111.691C145.407 113.719 145.716 115.295 146.335 116.419C146.97 117.525 147.855 118.079 148.991 118.079Z" fill="#006500"/>
<path fill-rule="evenodd" clip-rule="evenodd" d="M184.551 110.914C189.668 112.533 192.509 118.009 190.895 123.144L188.474 130.851L185.23 138.709L181.316 146.255L176.761 153.429L171.601 160.177L165.874 166.448L159.624 172.195L152.899 177.373L145.75 181.944L138.607 185.675C133.848 188.161 127.981 186.305 125.503 181.529C123.025 176.753 124.875 170.865 129.635 168.379L136.025 165.041L141.743 161.385L147.122 157.244L152.121 152.647L156.701 147.631L160.829 142.234L164.471 136.496L167.602 130.461L170.197 124.175L172.363 117.281C173.977 112.145 179.433 109.295 184.551 110.914Z" fill="#019801"/>
<path fill-rule="evenodd" clip-rule="evenodd" d="M185.385 91.7861C180.146 92.9515 174.958 89.6347 173.797 84.3779L172.237 77.3201L170.198 70.8315L167.604 64.5459L164.473 58.5111L160.83 52.7731L156.703 47.3755L152.122 42.3595L147.124 37.7631L141.745 33.6214L136.027 29.9659L130.013 26.8244L123.749 24.2208L117.283 22.175L110.663 20.7024L103.941 19.8144L97.1678 19.5176L90.3943 19.8144L83.6723 20.7024L77.053 22.175L70.5869 24.2208L64.3229 26.8244L58.3091 29.9659L52.5908 33.6214L47.2119 37.7631L42.2132 42.3595L37.6327 47.3755L33.5053 52.7731L29.8624 58.511L26.7317 64.5459L24.1372 70.8313L22.0984 77.3201L20.6309 83.9623L19.746 90.7075L19.4502 97.5047L19.746 104.302L20.6309 111.047L22.0984 117.689L24.1372 124.178L26.7317 130.463L29.8624 136.498L33.5053 142.236L37.6327 147.634L42.2132 152.65L47.2119 157.246L52.5908 161.388L58.3091 165.043L64.3229 168.185L70.5867 170.788L77.0531 172.834L83.6723 174.307L90.3942 175.195L97.5916 175.51C102.952 175.745 107.108 180.296 106.874 185.676C106.64 191.055 102.105 195.225 96.744 194.991L88.6991 194.638L80.2948 193.528L72.0189 191.687L63.9345 189.129L56.1029 185.874L48.5839 181.946L41.4347 177.376L34.7096 172.197L28.4598 166.451L22.733 160.179L17.5726 153.431L13.018 146.257L9.10387 138.712L5.85996 130.853L3.31093 122.741L1.4762 114.436L0.36975 106.003L0 97.5046L0.369772 89.0065L1.47621 80.5731L3.31093 72.2685L5.85993 64.156L9.10387 56.2973L13.018 48.7523L17.5726 41.5782L22.733 34.8298L28.4598 28.5584L34.7095 22.8117L41.4346 17.6335L48.5839 13.0631L56.1029 9.13542L63.9345 5.88025L72.0189 3.32239L80.2948 1.48132L88.6991 0.371033L97.1678 0L105.637 0.371032L114.041 1.48131L122.317 3.32238L130.401 5.88025L138.233 9.13542L145.752 13.0631L152.901 17.6335L159.626 22.8117L165.876 28.5584L171.603 34.8298L176.763 41.5782L181.318 48.7523L185.232 56.2974L188.476 64.156L191.025 72.2685L192.768 80.1575C193.929 85.4144 190.624 90.6207 185.385 91.7861Z" fill="#43D943"/>
</svg>
