<svg width="135" height="141" viewBox="0 0 135 141" fill="none" xmlns="http://www.w3.org/2000/svg">
<path d="M110.855 122.184C135.319 100.597 126.935 61.2016 94.623 53.6523C93.0171 53.2084 91.1619 53.0413 89.5697 52.8604C85.9445 74.4164 71.5058 96.0082 52.9232 98.8229C36.1685 101.279 30.2791 84.439 39.1605 72.6332C49.7738 58.6269 65.8543 48.2926 83.4389 46.5851C84.5677 32.8091 80.1856 19.5841 66.3849 12.9169C43.1165 1.73104 13.4626 19.8949 5.66929 42.4594C5.00342 44.8682 1.26551 44.0078 1.93138 41.599C9.02341 10.6297 50.8195 -7.37541 77.1573 12.0919C87.3165 19.7401 91.1583 32.7295 90.2926 46.4918C108.278 47.4013 123.21 60.6042 129.599 76.8898C136.913 95.7655 128.624 113.871 114.218 125.965C111.946 127.93 108.847 124.134 110.855 122.184ZM54.6436 66.0231C49.0752 70.5339 42.7861 76.4012 40.7885 83.6276C38.7772 90.5906 48.3713 92.4653 52.5943 92.5086C57.8695 92.4976 62.413 88.5678 65.9179 84.9559C73.7028 77.4283 80.1895 65.2198 82.7155 52.9538C72.4966 54.2775 62.7606 59.7968 54.6436 66.0231Z" fill="#43D943"/>
<path d="M101.889 137.423C101.505 130.056 101.634 122.4 103.105 115.201C103.744 112.266 107.758 113.376 107.383 116.297C106.632 122.14 107.211 128.177 107.775 133.951C111.181 133.51 114.85 133.055 118.243 132.35C120.846 131.687 124.697 129.64 127.41 131.081C128.767 131.802 128.835 133.117 128.377 134.46C127.226 137.686 121.701 137.974 118.835 138.65C114.14 139.686 109.682 140.182 104.946 140.429C103.369 140.511 101.971 139.001 101.889 137.423Z" fill="#43D943"/>
</svg>
