<svg width="60" height="64" viewBox="0 0 60 64" fill="none" xmlns="http://www.w3.org/2000/svg">
<path d="M2.13841 37.7378H15.2956C16.6321 37.7378 17.434 37.1439 17.731 35.9558L23.4631 9.5821H21.2059L29.9971 62.389C30.3537 64.5275 33.6502 64.4976 34.0661 62.389L42.5901 22.3829L40.7189 22.3532L43.392 35.7183C43.6593 37.0844 44.4313 37.7378 45.8273 37.7378H57.351C58.5392 37.7378 59.4896 36.8173 59.4896 35.6588C59.4896 34.4709 58.5688 33.5501 57.351 33.5501H43.3327L47.6095 37.0251L43.4216 18.4328C42.9761 16.3834 39.917 16.3834 39.4122 18.5218L30.7397 57.2806H32.8483L24.1462 4.50336C23.8195 2.42436 20.7901 2.36495 20.3149 4.50336L13.276 37.0251L17.5528 33.5501H2.13841C0.920705 33.5501 0 34.5005 0 35.6588C0 36.8173 0.920705 37.7378 2.13841 37.7378Z" fill="#43D943"/>
</svg>
